<svg width="50" height="50" viewBox="0 0 50 50" fill="none" xmlns="http://www.w3.org/2000/svg">
<path d="M14.5132 0C6.52043 0 0 6.52043 0 14.5132V35.4868C0 43.4796 6.52043 50 14.5132 50H35.4868C43.4796 50 50 43.4796 50 35.4868V14.5132C50 6.52043 43.4796 0 35.4868 0H14.5132ZM14.5132 3.84615H35.4868C41.3987 3.84615 46.1538 8.59375 46.1538 14.5132V35.4868C46.1538 41.3987 41.4062 46.1538 35.4868 46.1538H14.5132C8.60126 46.1538 3.84615 41.4062 3.84615 35.4868V14.5132C3.84615 8.60126 8.59375 3.84615 14.5132 3.84615ZM39.4231 7.69231C37.8305 7.69231 36.5385 8.98438 36.5385 10.5769C36.5385 12.1695 37.8305 13.4615 39.4231 13.4615C41.0156 13.4615 42.3077 12.1695 42.3077 10.5769C42.3077 8.98438 41.0156 7.69231 39.4231 7.69231ZM25 11.5385C17.5856 11.5385 11.5385 17.5856 11.5385 25C11.5385 32.4144 17.5856 38.4615 25 38.4615C32.4144 38.4615 38.4615 32.4144 38.4615 25C38.4615 17.5856 32.4144 11.5385 25 11.5385ZM25 15.3846C30.3335 15.3846 34.6154 19.6665 34.6154 25C34.6154 30.3335 30.3335 34.6154 25 34.6154C19.6665 34.6154 15.3846 30.3335 15.3846 25C15.3846 19.6665 19.6665 15.3846 25 15.3846Z" fill="#E7E7E7"/>
</svg>
