<svg width="392" height="438" viewBox="0 0 392 438" fill="none" xmlns="http://www.w3.org/2000/svg">
<path d="M219 438C340.031 438 438 340.032 438 219.001C438 177.226 426.402 137.982 406.134 104.797L376.406 114.635L335.344 100.948C335.344 100.948 327.686 109.726 301.125 107.791C239.826 103.326 116.344 80.4167 116.344 80.4167C116.344 80.4167 186.763 82.1161 219 80.4167C241.842 79.0734 253.219 66.7288 253.219 66.7288H294.281L314.812 46.1976H349.031L354.164 46.6221C316.942 17.4245 270.03 0 219 0C97.9686 0 0 97.9673 0 218.998C0 228.306 0.585825 237.371 1.71094 246.373H34.2187L75.2812 232.685L116.344 246.373C116.344 246.373 124.001 237.594 150.562 239.529C211.861 243.994 335.344 266.904 335.344 266.904C335.344 266.904 264.924 265.205 232.688 266.904C209.846 268.247 198.469 280.592 198.469 280.592H157.406L136.875 301.122H102.656L82.125 314.81C63.9923 320.857 45.9448 321.37 23.0977 316.738C59.013 388.606 133.143 438 219 438Z" fill="#E6E6E6"/>
</svg>
