<svg width="50" height="50" viewBox="0 0 50 50" fill="none" xmlns="http://www.w3.org/2000/svg">
<path d="M44.4444 0H5.55556C2.48611 0 0 2.48611 0 5.55556V44.4444C0 47.5139 2.48611 50 5.55556 50H44.4444C47.5139 50 50 47.5139 50 44.4444V5.55556C50 2.48611 47.5139 0 44.4444 0ZM41.4083 35.2333L36.5889 35.3C36.5889 35.3 35.55 35.5028 34.1889 34.5639C32.3861 33.325 30.6861 30.1028 29.3611 30.5222C28.0167 30.95 28.0583 33.85 28.0583 33.85C28.0583 33.85 28.0694 34.3611 27.7611 34.6944C27.4278 35.0528 26.775 35.0167 26.775 35.0167H24.6167C24.6167 35.0167 19.8556 35.4111 15.6583 31.0361C11.0861 26.2667 7.04722 16.8528 7.04722 16.8528C7.04722 16.8528 6.81111 16.2583 7.06389 15.9556C7.35 15.6194 8.12222 15.6111 8.12222 15.6111L13.2806 15.5861C13.2806 15.5861 13.7667 15.6722 14.1167 15.9278C14.4028 16.1389 14.5667 16.5361 14.5667 16.5361C14.5667 16.5361 15.4 18.65 16.5056 20.5639C18.6611 24.2944 19.6639 25.1111 20.3944 24.7111C21.4611 24.1278 21.1417 19.4389 21.1417 19.4389C21.1417 19.4389 21.1611 17.7361 20.6056 16.9778C20.1722 16.3861 19.3583 16.2111 19 16.1667C18.7083 16.1278 19.1833 15.4528 19.8028 15.1472C20.7306 14.6944 22.3722 14.6667 24.3083 14.6861C25.8167 14.7028 26.2528 14.7944 26.8417 14.9389C28.6222 15.3694 28.0167 17.0306 28.0167 21.0167C28.0167 22.2944 27.7861 24.0889 28.7056 24.6806C29.1028 24.9361 30.0694 24.7194 32.4833 20.6083C33.6306 18.6583 34.4889 16.3667 34.4889 16.3667C34.4889 16.3667 34.6778 15.9583 34.9694 15.7833C35.2694 15.6028 35.6722 15.6583 35.6722 15.6583L41.1028 15.625C41.1028 15.625 42.7333 15.4278 43 16.1694C43.2778 16.9444 42.3917 18.7528 40.1722 21.7111C36.5306 26.5722 36.125 26.1194 39.15 28.9306C42.0389 31.6167 42.6361 32.9222 42.7361 33.0861C43.9306 35.075 41.4083 35.2333 41.4083 35.2333Z" fill="#E7E7E7"/>
</svg>
